<svg width="48" height="48" viewBox="0 0 31 31" fill="none" xmlns="http://www.w3.org/2000/svg">
<circle cx="15.5" cy="15.5" r="15.5" fill="#D801FF"/>
<path fill-rule="evenodd" clip-rule="evenodd" d="M13.6102 0.100533C8.15168 0.774218 3.46367 4.26535 1.23839 9.31388C0.835634 10.2275 0.380739 11.7486 0.167364 12.895C0.0250629 13.6596 -0.00066615 14.0587 1.29105e-05 15.4922C0.000842873 17.2404 0.0578088 17.7585 0.411297 19.233C1.093 22.0765 2.84822 25.0196 4.99043 26.9112C5.30996 27.1934 5.63606 27.4818 5.71513 27.5521C5.79421 27.6224 6.05806 27.8194 6.30154 27.9898L6.74414 28.2995L6.74376 26.8456C6.74338 25.4324 6.73817 25.3832 6.55747 25.0905C6.03286 24.2406 6.58931 23.315 8.06453 22.5838C10.6189 21.3177 15.3196 20.873 19.2997 21.5209C23.1509 22.1479 25.292 23.6288 24.4413 25.0772C24.263 25.3807 24.2564 25.4417 24.256 26.8033C24.2557 27.5795 24.285 28.2146 24.3211 28.2146C24.4791 28.2146 25.6552 27.2596 26.3754 26.5465C28.8379 24.108 30.2048 21.4733 30.8608 17.9012C31.0461 16.8921 31.0465 14.0958 30.8614 13.0832C30.2257 9.60477 28.8441 6.91266 26.4746 4.53553C24.0076 2.06046 20.8229 0.517512 17.3073 0.0937579C16.2493 -0.0337672 14.6753 -0.0309068 13.6102 0.100533ZM15.4824 4.06842C15.4304 4.16161 15.3633 4.50881 15.3335 4.84004C15.2192 6.10836 15.1385 6.54123 14.9851 6.70858C14.9024 6.79876 14.8143 6.94036 14.7893 7.02317C14.7457 7.16756 14.7794 7.17381 15.6105 7.17584C16.0872 7.17705 16.4773 7.15634 16.4773 7.12992C16.4773 7.1035 16.3855 6.95008 16.2733 6.78905C16.063 6.4871 15.9913 6.1305 15.9048 4.95296C15.869 4.46703 15.7095 3.89903 15.6087 3.89903C15.5914 3.89903 15.5346 3.97522 15.4824 4.06842ZM14.7428 7.65508C14.0274 7.91005 13.8239 8.32229 14.152 8.85204C14.2958 9.08413 14.3142 9.20902 14.2974 9.83957C14.2832 10.3724 14.2468 10.596 14.1584 10.6935C14.0925 10.7663 14.0549 10.8419 14.0747 10.8617C14.0946 10.8815 14.3632 10.8442 14.6716 10.7788C15.3045 10.6445 16.1919 10.6722 16.8357 10.8462C17.1646 10.9352 17.2318 10.9362 17.2318 10.8521C17.2318 10.7964 17.1639 10.7085 17.0809 10.6568C16.9467 10.5732 16.93 10.4813 16.93 9.82504C16.93 9.18643 16.952 9.05763 17.0935 8.86664C17.5788 8.2117 16.9661 7.59944 15.7642 7.53839C15.2933 7.51445 15.0639 7.54065 14.7428 7.65508ZM14.5156 11.1671C14.2459 11.2247 13.7366 11.4155 13.3838 11.5913C12.8625 11.8512 12.6084 12.0453 12.0257 12.6289C11.0046 13.6515 10.5353 14.5148 10.0681 16.2298C9.94062 16.6976 9.78112 17.1645 9.71359 17.2673C9.55529 17.5083 9.61746 17.5644 9.88818 17.4247C10.3296 17.1969 11.6546 16.7787 12.4122 16.628C15.4769 16.0181 19.0208 16.3599 21.2496 17.4801C21.5297 17.6209 21.7589 17.7234 21.7589 17.708C21.7589 17.6925 21.6597 17.4841 21.5385 17.2448C21.4173 17.0054 21.2621 16.5925 21.1938 16.3272C20.6175 14.0902 19.3518 12.3458 17.722 11.5423C16.768 11.072 15.6022 10.9356 14.5156 11.1671ZM14.327 16.8487C10.7107 17.1146 8.10165 18.4332 7.83335 20.1306C7.79675 20.3623 7.82452 20.531 7.94335 20.799C8.04144 21.0202 8.10226 21.3141 8.10226 21.567C8.10226 22.0203 8.08784 22.0152 8.67387 21.7709L8.91916 21.6687L8.94452 20.8073C8.95855 20.3335 8.99394 19.922 9.02329 19.8929C9.05264 19.8638 9.12899 19.8599 9.19305 19.8845C9.28782 19.9207 9.30947 20.0767 9.30947 20.7219C9.30947 21.5853 9.30962 21.5855 9.75094 21.432L9.98853 21.3493V20.3381C9.98853 19.4803 10.0069 19.3198 10.1093 19.2806C10.3131 19.2026 10.3634 19.4092 10.3647 20.329L10.3658 21.2135L10.5733 21.2125C11.1259 21.2098 11.1202 21.2206 11.1214 20.1696C11.1225 19.0862 11.1586 18.8798 11.3467 18.8798C11.5341 18.8798 11.5708 19.0863 11.5719 20.1458C11.5729 20.9927 11.5845 21.0699 11.705 21.0359C11.7777 21.0155 11.9805 20.9765 12.1558 20.9492L12.4746 20.8998L12.4953 19.7581C12.5151 18.6735 12.5237 18.6164 12.667 18.6164C12.8102 18.6164 12.819 18.6735 12.8389 19.7268L12.8597 20.8371L13.2161 20.8361C13.9476 20.834 13.912 20.8956 13.912 19.6331C13.912 18.7372 13.9339 18.5037 14.0252 18.4282C14.1155 18.3534 14.1612 18.3534 14.2515 18.4282C14.3429 18.5038 14.3647 18.7385 14.3647 19.6454V20.769L14.8363 20.7467L15.3078 20.7242L15.3456 19.5197C15.3823 18.3469 15.3877 18.3146 15.5504 18.2915C15.7722 18.2601 15.7952 18.3784 15.8177 19.6703L15.836 20.7242L16.3453 20.7465L16.8546 20.7687V19.6881C16.8546 18.5507 16.9232 18.2764 17.1832 18.3759C17.2905 18.4169 17.3073 18.5713 17.3073 19.5112C17.3073 20.1095 17.3279 20.6526 17.3531 20.718C17.3876 20.8079 17.5075 20.8371 17.8415 20.8371H18.2842L18.305 19.7268C18.3248 18.6735 18.3337 18.6164 18.4768 18.6164C18.6201 18.6164 18.6287 18.6735 18.6485 19.7634C18.6717 21.0442 18.6309 20.9606 19.2573 21.0067L19.5098 21.0253L19.4987 20.1054C19.4877 19.185 19.5512 18.8798 19.754 18.8798C19.9196 18.8798 19.9481 19.0621 19.9481 20.122V21.1261L20.304 21.2018C20.4997 21.2434 20.6864 21.2611 20.719 21.2411C20.7515 21.2211 20.778 20.8213 20.778 20.3526C20.778 19.7055 20.804 19.479 20.8859 19.4112C21.0778 19.2523 21.1553 19.572 21.1553 20.5219V21.4211L21.4535 21.4966C21.6174 21.5382 21.7702 21.5535 21.793 21.5308C21.8157 21.5081 21.8344 21.1385 21.8344 20.7093C21.8344 20.0755 21.8562 19.9207 21.9508 19.8845C22.0148 19.8599 22.0912 19.8638 22.1205 19.8931C22.1499 19.9223 22.1859 20.3477 22.2005 20.8383L22.2272 21.7304L22.5228 21.8484C22.6853 21.9133 22.8345 21.9663 22.8545 21.9663C22.8744 21.9663 22.8907 21.8125 22.8907 21.6246C22.8907 21.4201 22.9568 21.1555 23.0555 20.9659C23.6641 19.7957 22.5524 18.3791 20.4145 17.6006C18.697 16.9752 16.4243 16.6945 14.327 16.8487ZM15.2852 22.7342C15.217 22.8023 15.1947 23.8333 15.1947 26.9123V31H15.5342H15.8737V26.9123C15.8737 22.6071 15.8767 22.6439 15.5342 22.6439C15.447 22.6439 15.335 22.6845 15.2852 22.7342ZM13.3235 22.8848C13.1808 23.0271 13.1938 30.8494 13.3367 30.8494C13.3937 30.8494 13.5465 30.8706 13.6762 30.8965L13.912 30.9435V27.0146C13.912 24.4502 13.8848 23.0351 13.8339 22.94C13.7466 22.7773 13.4621 22.7465 13.3235 22.8848ZM17.3262 22.8443C17.2524 22.874 17.2318 23.7585 17.2318 26.9115C17.2318 30.5548 17.2433 30.9365 17.3512 30.8951C17.4168 30.87 17.5696 30.8494 17.6907 30.8494H17.9109V27.015C17.9109 24.7058 17.8816 23.1038 17.8373 22.9875C17.7658 22.7999 17.5715 22.7455 17.3262 22.8443ZM11.4372 23.1106C11.3693 23.1784 11.3467 24.1074 11.3467 26.8282V30.4555L11.5164 30.5009C11.985 30.6262 11.9503 30.9166 11.9503 26.8746C11.9503 23.0771 11.9458 23.0203 11.6485 23.0203C11.5821 23.0203 11.487 23.0609 11.4372 23.1106ZM19.1962 23.1659C19.1455 23.2605 19.1181 24.5796 19.1181 26.9299C19.1181 30.8776 19.0872 30.63 19.5596 30.4657L19.7972 30.383V26.8472C19.7972 24.554 19.7697 23.2603 19.7191 23.1659C19.6747 23.0833 19.5617 23.0203 19.4576 23.0203C19.3536 23.0203 19.2406 23.0833 19.1962 23.1659ZM9.62637 23.487C9.55884 23.5544 9.53583 24.3752 9.53583 26.7159V29.8545L9.71744 29.8999C9.81733 29.925 9.95315 29.9662 10.0192 29.9915C10.128 30.0331 10.1394 29.736 10.1394 26.8627C10.1394 24.8182 10.1116 23.6361 10.0613 23.5423C9.97329 23.3782 9.76233 23.3514 9.62637 23.487ZM21.1003 23.4567C21.0294 23.5024 21.0064 24.2695 21.0028 26.7031C21.0002 28.4556 21.0139 29.9053 21.0332 29.9247C21.0888 29.98 21.3694 29.8723 21.4944 29.7476C21.5917 29.6504 21.6079 29.2164 21.6069 26.7225C21.606 24.5315 21.5823 23.7643 21.5107 23.6232C21.4093 23.4232 21.2515 23.3591 21.1003 23.4567ZM8.12112 23.8982C8.04823 23.9276 8.0268 24.5237 8.0268 26.5216V29.107L8.26478 29.2254C8.39561 29.2905 8.51445 29.3438 8.52886 29.3438C8.59842 29.3438 8.54772 24.1261 8.47687 23.9939C8.39961 23.85 8.30446 23.8244 8.12112 23.8982ZM22.6643 23.922C22.568 23.9827 22.5478 24.378 22.5285 26.567C22.5161 27.9825 22.533 29.1677 22.5662 29.2007C22.5994 29.2338 22.7369 29.2076 22.8718 29.1425L23.117 29.0239V26.5817C23.117 23.8548 23.0835 23.6578 22.6643 23.922Z" fill="#270E45"/>
</svg>
