<svg width="295" height="60" viewBox="0 0 295 60" fill="none" xmlns="http://www.w3.org/2000/svg">
<path d="M53.9658 22.8859H58.3774C59.0283 22.8859 59.6551 22.8377 60.2578 22.7413C60.8604 22.6448 61.3908 22.464 61.8488 22.1989C62.3069 21.9096 62.6685 21.5118 62.9337 21.0056C63.223 20.4993 63.3676 19.8364 63.3676 19.0167C63.3676 18.1971 63.223 17.5341 62.9337 17.0279C62.6685 16.5216 62.3069 16.1359 61.8488 15.8707C61.3908 15.5814 60.8604 15.3886 60.2578 15.2921C59.6551 15.1957 59.0283 15.1475 58.3774 15.1475H53.9658V22.8859ZM48.2886 10.7359H59.9323C61.5475 10.7359 62.9216 10.977 64.0547 11.4591C65.1877 11.9171 66.1038 12.5319 66.8029 13.3033C67.5261 14.0747 68.0444 14.9546 68.3578 15.943C68.6953 16.9314 68.864 17.956 68.864 19.0167C68.864 20.0533 68.6953 21.0779 68.3578 22.0904C68.0444 23.0788 67.5261 23.9587 66.8029 24.7301C66.1038 25.5015 65.1877 26.1283 64.0547 26.6105C62.9216 27.0685 61.5475 27.2975 59.9323 27.2975H53.9658V36.5547H48.2886V10.7359ZM76.4214 27.2252C76.4214 27.9725 76.4937 28.7078 76.6383 29.431C76.783 30.1301 77.024 30.769 77.3615 31.3475C77.7231 31.902 78.1932 32.348 78.7718 32.6855C79.3504 33.023 80.0736 33.1917 80.9415 33.1917C81.8093 33.1917 82.5325 33.023 83.1111 32.6855C83.7138 32.348 84.1839 31.902 84.5214 31.3475C84.883 30.769 85.1361 30.1301 85.2807 29.431C85.4254 28.7078 85.4977 27.9725 85.4977 27.2252C85.4977 26.4779 85.4254 25.7426 85.2807 25.0194C85.1361 24.2962 84.883 23.6573 84.5214 23.1029C84.1839 22.5484 83.7138 22.1024 83.1111 21.7649C82.5325 21.4033 81.8093 21.2225 80.9415 21.2225C80.0736 21.2225 79.3504 21.4033 78.7718 21.7649C78.1932 22.1024 77.7231 22.5484 77.3615 23.1029C77.024 23.6573 76.783 24.2962 76.6383 25.0194C76.4937 25.7426 76.4214 26.4779 76.4214 27.2252ZM71.2865 27.2252C71.2865 25.7306 71.5155 24.3806 71.9736 23.1752C72.4316 21.9457 73.0825 20.9091 73.9263 20.0654C74.77 19.1975 75.7825 18.5346 76.9638 18.0765C78.145 17.5944 79.4709 17.3533 80.9415 17.3533C82.412 17.3533 83.7379 17.5944 84.9191 18.0765C86.1245 18.5346 87.1491 19.1975 87.9928 20.0654C88.8366 20.9091 89.4875 21.9457 89.9455 23.1752C90.4035 24.3806 90.6325 25.7306 90.6325 27.2252C90.6325 28.7199 90.4035 30.0699 89.9455 31.2752C89.4875 32.4806 88.8366 33.5172 87.9928 34.385C87.1491 35.2288 86.1245 35.8797 84.9191 36.3377C83.7379 36.7958 82.412 37.0248 80.9415 37.0248C79.4709 37.0248 78.145 36.7958 76.9638 36.3377C75.7825 35.8797 74.77 35.2288 73.9263 34.385C73.0825 33.5172 72.4316 32.4806 71.9736 31.2752C71.5155 30.0699 71.2865 28.7199 71.2865 27.2252ZM94.1158 10.7359H99.2507V36.5547H94.1158V10.7359ZM108.573 14.9667H103.439V10.7359H108.573V14.9667ZM103.439 17.8596H108.573V36.5547H103.439V17.8596ZM119.126 17.8596H122.886V21.2948H119.126V30.552C119.126 31.4199 119.27 31.9984 119.559 32.2877C119.849 32.577 120.427 32.7216 121.295 32.7216C121.584 32.7216 121.862 32.7096 122.127 32.6855C122.392 32.6614 122.645 32.6252 122.886 32.577V36.5547C122.452 36.627 121.97 36.6752 121.44 36.6993C120.909 36.7234 120.391 36.7355 119.885 36.7355C119.089 36.7355 118.33 36.6752 117.607 36.5547C116.908 36.4583 116.281 36.2533 115.726 35.94C115.196 35.6266 114.774 35.1806 114.461 34.602C114.147 34.0234 113.991 33.2641 113.991 32.3239V21.2948H110.881V17.8596H113.991V12.2546H119.126V17.8596ZM130.609 14.9667H125.474V10.7359H130.609V14.9667ZM125.474 17.8596H130.609V36.5547H125.474V17.8596ZM147.381 24.4408C147.043 22.2953 145.778 21.2225 143.584 21.2225C142.764 21.2225 142.077 21.4154 141.523 21.8011C140.968 22.1627 140.51 22.6448 140.149 23.2475C139.811 23.8261 139.57 24.477 139.425 25.2002C139.281 25.8993 139.208 26.5984 139.208 27.2975C139.208 27.9725 139.281 28.6596 139.425 29.3587C139.57 30.0578 139.799 30.6966 140.112 31.2752C140.45 31.8297 140.896 32.2877 141.45 32.6493C142.005 33.0109 142.68 33.1917 143.475 33.1917C144.705 33.1917 145.645 32.8542 146.296 32.1792C146.971 31.4801 147.393 30.552 147.561 29.3949H152.516C152.178 31.8779 151.214 33.7703 149.623 35.0721C148.032 36.3739 145.995 37.0248 143.511 37.0248C142.113 37.0248 140.824 36.7958 139.642 36.3377C138.485 35.8556 137.497 35.1926 136.677 34.3489C135.857 33.5051 135.219 32.5047 134.761 31.3475C134.303 30.1663 134.074 28.8765 134.074 27.4783C134.074 26.0319 134.278 24.694 134.688 23.4645C135.122 22.2109 135.749 21.1381 136.569 20.2462C137.388 19.3301 138.389 18.6189 139.57 18.1127C140.751 17.6064 142.101 17.3533 143.62 17.3533C144.729 17.3533 145.79 17.498 146.802 17.7872C147.839 18.0765 148.755 18.5225 149.55 19.1252C150.37 19.7038 151.033 20.439 151.539 21.331C152.045 22.1989 152.335 23.2355 152.407 24.4408H147.381ZM155.199 23.6091C155.272 22.4038 155.573 21.4033 156.103 20.6078C156.634 19.8122 157.309 19.1734 158.128 18.6913C158.948 18.2091 159.864 17.8716 160.877 17.6788C161.913 17.4618 162.95 17.3533 163.986 17.3533C164.927 17.3533 165.879 17.4256 166.843 17.5703C167.807 17.6908 168.687 17.9439 169.483 18.3297C170.278 18.7154 170.929 19.2578 171.436 19.9569C171.942 20.6319 172.195 21.5359 172.195 22.6689V32.3962C172.195 33.2399 172.243 34.0475 172.34 34.819C172.436 35.5904 172.605 36.169 172.846 36.5547H167.639C167.542 36.2654 167.458 35.9761 167.386 35.6868C167.337 35.3734 167.301 35.06 167.277 34.7466C166.457 35.5904 165.493 36.181 164.384 36.5185C163.275 36.856 162.142 37.0248 160.985 37.0248C160.093 37.0248 159.261 36.9163 158.49 36.6993C157.719 36.4824 157.044 36.1449 156.465 35.6868C155.886 35.2288 155.428 34.6502 155.091 33.9511C154.777 33.252 154.621 32.4203 154.621 31.456C154.621 30.3953 154.802 29.5274 155.163 28.8524C155.549 28.1533 156.031 27.5989 156.61 27.189C157.212 26.7792 157.887 26.4779 158.635 26.285C159.406 26.0681 160.177 25.8993 160.949 25.7788C161.72 25.6582 162.48 25.5618 163.227 25.4895C163.974 25.4172 164.637 25.3087 165.216 25.164C165.794 25.0194 166.252 24.8145 166.59 24.5493C166.927 24.26 167.084 23.8502 167.06 23.3198C167.06 22.7654 166.964 22.3314 166.771 22.0181C166.602 21.6806 166.361 21.4274 166.048 21.2587C165.758 21.0658 165.409 20.9453 164.999 20.8971C164.613 20.8247 164.191 20.7886 163.733 20.7886C162.721 20.7886 161.925 21.0056 161.347 21.4395C160.768 21.8734 160.431 22.5966 160.334 23.6091H155.199ZM167.06 27.406C166.843 27.5989 166.566 27.7556 166.228 27.8761C165.915 27.9725 165.565 28.0569 165.18 28.1292C164.818 28.2015 164.432 28.2618 164.023 28.31C163.613 28.3582 163.203 28.4185 162.793 28.4908C162.407 28.5632 162.022 28.6596 161.636 28.7801C161.274 28.9007 160.949 29.0694 160.66 29.2864C160.394 29.4792 160.177 29.7324 160.009 30.0457C159.84 30.3591 159.756 30.7569 159.756 31.2391C159.756 31.6971 159.84 32.0828 160.009 32.3962C160.177 32.7096 160.406 32.9627 160.696 33.1556C160.985 33.3243 161.323 33.4449 161.708 33.5172C162.094 33.5895 162.492 33.6257 162.902 33.6257C163.914 33.6257 164.698 33.4569 165.252 33.1194C165.806 32.7819 166.216 32.3841 166.481 31.9261C166.747 31.444 166.903 30.9618 166.952 30.4797C167.024 29.9975 167.06 29.6118 167.06 29.3225V27.406ZM176.325 10.7359H181.46V36.5547H176.325V10.7359ZM201.787 22.8859H206.199C206.85 22.8859 207.476 22.8377 208.079 22.7413C208.682 22.6448 209.212 22.464 209.67 22.1989C210.128 21.9096 210.49 21.5118 210.755 21.0056C211.044 20.4993 211.189 19.8364 211.189 19.0167C211.189 18.1971 211.044 17.5341 210.755 17.0279C210.49 16.5216 210.128 16.1359 209.67 15.8707C209.212 15.5814 208.682 15.3886 208.079 15.2921C207.476 15.1957 206.85 15.1475 206.199 15.1475H201.787V22.8859ZM196.11 10.7359H207.754C209.369 10.7359 210.743 10.977 211.876 11.4591C213.009 11.9171 213.925 12.5319 214.624 13.3033C215.347 14.0747 215.866 14.9546 216.179 15.943C216.517 16.9314 216.685 17.956 216.685 19.0167C216.685 20.0533 216.517 21.0779 216.179 22.0904C215.866 23.0788 215.347 23.9587 214.624 24.7301C213.925 25.5015 213.009 26.1283 211.876 26.6105C210.743 27.0685 209.369 27.2975 207.754 27.2975H201.787V36.5547H196.11V10.7359ZM237.224 36.5547H232.343V33.9511H232.234C231.583 35.0359 230.74 35.8194 229.703 36.3016C228.666 36.7837 227.606 37.0248 226.521 37.0248C225.147 37.0248 224.014 36.844 223.122 36.4824C222.254 36.1208 221.567 35.6145 221.061 34.9636C220.554 34.2886 220.193 33.481 219.976 32.5408C219.783 31.5766 219.686 30.5158 219.686 29.3587V17.8596H224.821V28.4185C224.821 29.9614 225.062 31.1185 225.544 31.8899C226.027 32.6373 226.882 33.0109 228.112 33.0109C229.51 33.0109 230.523 32.6011 231.149 31.7815C231.776 30.9377 232.09 29.5636 232.09 27.6591V17.8596H237.224V36.5547ZM241.266 17.8596H246.112V20.3908H246.184C246.859 19.4265 247.667 18.6792 248.607 18.1488C249.571 17.6185 250.668 17.3533 251.897 17.3533C253.079 17.3533 254.152 17.5823 255.116 18.0404C256.104 18.4984 256.852 19.306 257.358 20.4631C257.912 19.6435 258.66 18.9203 259.6 18.2935C260.564 17.6667 261.697 17.3533 262.999 17.3533C263.987 17.3533 264.903 17.4738 265.747 17.7149C266.591 17.956 267.314 18.3417 267.917 18.8721C268.519 19.4024 268.989 20.1015 269.327 20.9694C269.664 21.8131 269.833 22.8377 269.833 24.0431V36.5547H264.698V25.9596C264.698 25.3328 264.674 24.7422 264.626 24.1877C264.578 23.6332 264.445 23.1511 264.228 22.7413C264.011 22.3314 263.686 22.006 263.252 21.7649C262.842 21.5239 262.276 21.4033 261.552 21.4033C260.829 21.4033 260.239 21.548 259.781 21.8372C259.347 22.1024 258.997 22.464 258.732 22.9221C258.491 23.356 258.322 23.8623 258.226 24.4408C258.153 24.9953 258.117 25.5618 258.117 26.1404V36.5547H252.982V26.0681C252.982 25.5136 252.97 24.9712 252.946 24.4408C252.922 23.8864 252.814 23.3801 252.621 22.9221C252.452 22.464 252.151 22.1024 251.717 21.8372C251.307 21.548 250.692 21.4033 249.872 21.4033C249.631 21.4033 249.306 21.4636 248.896 21.5841C248.51 21.6806 248.125 21.8855 247.739 22.1989C247.377 22.4881 247.064 22.9221 246.799 23.5006C246.534 24.0551 246.401 24.7904 246.401 25.7065V36.5547H241.266V17.8596ZM283.33 33.1917C284.174 33.1917 284.873 33.023 285.428 32.6855C286.006 32.348 286.464 31.9141 286.802 31.3837C287.163 30.8292 287.416 30.1904 287.561 29.4672C287.706 28.744 287.778 28.0087 287.778 27.2614C287.778 26.514 287.694 25.7788 287.525 25.0556C287.38 24.3323 287.127 23.6935 286.766 23.139C286.404 22.5605 285.934 22.1024 285.355 21.7649C284.801 21.4033 284.114 21.2225 283.294 21.2225C282.45 21.2225 281.739 21.4033 281.161 21.7649C280.606 22.1024 280.148 22.5484 279.786 23.1029C279.449 23.6573 279.208 24.2962 279.063 25.0194C278.919 25.7426 278.846 26.4899 278.846 27.2614C278.846 28.0087 278.919 28.744 279.063 29.4672C279.232 30.1904 279.485 30.8292 279.823 31.3837C280.184 31.9141 280.654 32.348 281.233 32.6855C281.811 33.023 282.511 33.1917 283.33 33.1917ZM273.892 17.8596H278.774V20.2462H278.846C279.473 19.2337 280.269 18.4984 281.233 18.0404C282.197 17.5823 283.258 17.3533 284.415 17.3533C285.886 17.3533 287.151 17.6305 288.212 18.185C289.273 18.7395 290.153 19.4747 290.852 20.3908C291.551 21.3069 292.069 22.3797 292.407 23.6091C292.744 24.8145 292.913 26.0801 292.913 27.406C292.913 28.6596 292.744 29.8649 292.407 31.0221C292.069 32.1792 291.551 33.2038 290.852 34.0958C290.177 34.9877 289.321 35.6989 288.284 36.2292C287.272 36.7596 286.078 37.0248 284.704 37.0248C283.547 37.0248 282.474 36.7958 281.486 36.3377C280.522 35.8556 279.726 35.1565 279.099 34.2404H279.027V43.0998H273.892V17.8596Z" fill="#D800FF"/>
<path fill-rule="evenodd" clip-rule="evenodd" d="M17.3821 9.66904C12.6374 9.97629 8.09237 12.4141 5.15513 16.2273C4.46396 17.1246 4.01376 17.8508 3.42572 19.0168C2.4276 20.9959 1.89687 22.8844 1.68591 25.2082C1.52552 26.9754 1.70317 29.0231 2.17387 30.8312C2.92242 33.7067 4.32558 36.207 6.38647 38.3376C6.95911 38.9296 7.76774 39.6716 7.84027 39.6716C7.86222 39.6716 7.8802 38.4962 7.8802 37.0595V34.4475L7.69275 34.146C7.04385 33.1021 7.87707 31.9223 9.87019 31.063C14.3289 29.1408 22.6283 29.2057 26.8156 31.1956C27.8728 31.698 28.4947 32.2169 28.7836 32.8374C28.9449 33.1838 28.9811 33.6577 28.8462 33.6577C28.8008 33.6577 28.425 33.766 28.0112 33.8983C27.5973 34.0306 27.2421 34.1388 27.2217 34.1388C27.2014 34.1388 27.1847 33.8878 27.1847 33.5809C27.1847 32.9389 27.1055 32.7556 26.8279 32.7556C26.5447 32.7556 26.496 32.8824 26.4631 33.7058L26.433 34.4574L25.9533 34.6589C25.6894 34.7698 25.4526 34.8605 25.4271 34.8605C25.4015 34.8605 25.3806 34.3181 25.3806 33.655V32.4495L25.2292 32.2981C25.1185 32.1875 25.0418 32.1576 24.9435 32.187C24.6344 32.2797 24.6302 32.3006 24.61 33.8284L24.5911 35.2578L23.9627 35.5704C23.6172 35.7423 23.3223 35.8829 23.3074 35.8829C23.2926 35.8829 23.2726 35.0062 23.263 33.9346C23.2468 32.1169 23.238 31.9778 23.1311 31.8598C22.9843 31.6977 22.7252 31.6977 22.5784 31.8598C22.4709 31.9785 22.4628 32.1204 22.4467 34.1663L22.4296 36.3462L21.7551 36.7103L21.0807 37.0743L21.0506 34.4188C21.034 32.9583 20.9971 31.7152 20.9683 31.6564C20.851 31.4162 20.5428 31.3665 20.3403 31.5552L20.2086 31.6778L20.2082 34.6073L20.2077 37.5367L19.9826 37.663C19.3331 38.0278 18.8285 38.2884 18.7718 38.2884C18.7278 38.2884 18.7029 37.2321 18.6916 34.8857C18.6756 31.5969 18.6712 31.4801 18.5584 31.3977C18.3645 31.256 18.0699 31.2901 17.9278 31.4708C17.8048 31.6271 17.8031 31.6784 17.8031 35.2203V38.8113L17.1488 39.1513C16.789 39.3382 16.4508 39.4912 16.3971 39.4912C16.3082 39.4912 16.2996 39.1466 16.2996 35.5822C16.2996 31.7533 16.2972 31.6707 16.1793 31.5529C16.1132 31.4867 15.9914 31.4326 15.9087 31.4326C15.826 31.4326 15.7043 31.4867 15.6381 31.5529C15.5202 31.6708 15.5178 31.7533 15.5178 35.7911V39.9091L15.3524 39.9945C15.1965 40.0751 14.1324 40.5135 14.0929 40.5135C14.0828 40.5135 14.0745 38.6204 14.0745 36.3067C14.0745 33.2197 14.0557 32.0586 14.0041 31.9452C13.9154 31.7507 13.6815 31.6869 13.4773 31.8015L13.3228 31.8882L13.2927 36.3362L13.2626 40.7842L12.7214 40.9183C12.4237 40.9922 12.1193 41.0671 12.0448 41.0849L11.9095 41.1172V36.7834V32.4495L11.7581 32.2981C11.6475 32.1875 11.5707 32.1576 11.4725 32.187C11.1413 32.2863 11.1591 32.0387 11.1416 36.8113L11.1254 41.2235L10.4309 41.2669C8.60493 41.381 6.51625 41.0024 4.63463 40.2161C3.44052 39.7171 1.77287 38.7226 0.926957 38.005C0.447651 37.5984 0.489868 37.6909 1.1799 38.559C1.82002 39.3644 3.27525 40.8268 3.97118 41.3641C8.16676 44.603 13.055 44.7044 18.5248 41.6658C19.7432 40.9889 21.2125 39.9938 22.4939 38.9775C25.0924 36.9166 27.711 35.6579 30.8532 34.9594C32.7117 34.5463 34.9028 34.3714 36.7622 34.4879C37.3987 34.5278 37.9872 34.5741 38.0698 34.5909C38.1525 34.6077 37.9496 34.4867 37.6188 34.3221C36.8786 33.9537 35.7943 33.5887 34.8975 33.4063C34.4739 33.32 34.221 33.2407 34.221 33.1941C34.221 33.1531 34.2991 32.9227 34.3947 32.682C34.7515 31.7834 35.1212 30.435 35.2978 29.3879C36.0253 25.0751 35.0226 20.5407 32.5515 16.9692C30.8782 14.5507 28.5789 12.5785 25.9725 11.3259C23.8177 10.2902 21.8101 9.78283 19.2742 9.63296L18.6104 9.59375L18.6313 10.2144C18.6427 10.5558 18.6901 10.9704 18.7365 11.1358C18.7829 11.3011 18.8295 11.6317 18.84 11.8704C18.8564 12.2398 18.8825 12.3294 19.0154 12.4718C19.1013 12.5639 19.202 12.6984 19.2391 12.7706C19.3853 13.0553 19.3697 13.0602 18.3228 13.0602H17.339L17.3895 12.8843C17.4172 12.7876 17.5064 12.6388 17.5876 12.5535C17.7958 12.3352 17.8632 12.119 17.8632 11.6691C17.8632 11.4541 17.8946 11.2197 17.9329 11.1481C17.9712 11.0765 18.0113 10.7383 18.022 10.3963C18.0327 10.0544 18.0559 9.75125 18.0736 9.72269C18.1284 9.6341 18.0342 9.62683 17.3821 9.66904ZM17.5024 13.5968C16.9073 13.7614 16.5297 14.0441 16.4428 14.3905C16.3976 14.5705 16.5594 15.0192 16.7228 15.167C16.8299 15.264 16.8409 15.3557 16.8409 16.1568V17.0395L16.6605 17.2003C16.5612 17.2887 16.48 17.3842 16.48 17.4124C16.48 17.4407 16.6898 17.4101 16.9461 17.3444C17.6351 17.1677 18.9698 17.1704 19.662 17.35C19.9402 17.4221 20.1792 17.4698 20.1931 17.4558C20.2393 17.4096 20.0873 17.1834 19.9667 17.1189C19.8567 17.06 19.8478 16.9903 19.8478 16.1899C19.8478 15.3698 19.8552 15.3158 19.9892 15.1547C20.197 14.9048 20.2688 14.7449 20.2688 14.5318C20.2688 13.9276 19.4568 13.5054 18.3167 13.5166C18.0177 13.5196 17.6512 13.5557 17.5024 13.5968ZM17.5024 15.9769C17.5024 16.899 17.5074 16.9392 17.6227 16.9392C17.738 16.9392 17.743 16.899 17.743 15.9769C17.743 15.0548 17.738 15.0147 17.6227 15.0147C17.5074 15.0147 17.5024 15.0548 17.5024 15.9769ZM18.2376 15.9611C18.2524 16.807 18.2653 16.9097 18.3594 16.9278C18.4561 16.9463 18.4646 16.8696 18.4646 15.9813C18.4646 15.0507 18.46 15.0147 18.3428 15.0147C18.225 15.0147 18.2215 15.0454 18.2376 15.9611ZM18.9593 15.9611C18.9741 16.807 18.987 16.9097 19.081 16.9278C19.1777 16.9463 19.1863 16.8696 19.1863 15.9813C19.1863 15.0507 19.1817 15.0147 19.0645 15.0147C18.9466 15.0147 18.9432 15.0454 18.9593 15.9611ZM17.3665 17.7518C15.4467 18.1164 13.8317 19.3694 12.7692 21.3187C12.3854 22.0227 12.1295 22.7041 11.8821 23.6808C11.6759 24.4946 11.5138 24.9147 11.3219 25.1331C11.1864 25.2871 11.2981 25.2634 11.813 25.0288C15.4619 23.3659 21.4932 23.4331 24.9597 25.1753L25.574 25.484L25.4399 25.2671C25.1769 24.8416 25.0316 24.4766 24.842 23.7659C24.5066 22.5082 24.1524 21.7095 23.4816 20.6978C22.9569 19.9064 22.2332 19.1493 21.5482 18.6749C21.1293 18.3849 20.2103 17.9707 19.6975 17.8408C19.0493 17.6767 17.9774 17.6357 17.3665 17.7518ZM18.1059 21.6861C18.0717 21.7501 18.0436 21.9414 18.0436 22.1111C18.0436 22.5135 18.1207 22.6523 18.3443 22.6523C18.5679 22.6523 18.645 22.5135 18.645 22.1111C18.645 21.7086 18.5679 21.5698 18.3443 21.5698C18.2317 21.5698 18.1457 21.6118 18.1059 21.6861ZM16.9732 21.7021C16.9314 21.7439 16.901 21.9437 16.901 22.1759C16.901 22.6144 16.9732 22.7361 17.2134 22.7021C17.3396 22.6842 17.3537 22.6474 17.3703 22.2934C17.3947 21.7735 17.354 21.63 17.1825 21.63C17.107 21.63 17.0129 21.6625 16.9732 21.7021ZM19.3787 21.7021C19.337 21.7439 19.3066 21.9437 19.3066 22.1759C19.3066 22.627 19.3863 22.7508 19.6365 22.688C19.7797 22.652 19.7877 22.6281 19.7877 22.2352C19.7877 22.0069 19.7713 21.7774 19.7512 21.7251C19.7082 21.613 19.4818 21.5991 19.3787 21.7021ZM15.8933 21.8198C15.7917 21.9214 15.7962 22.5988 15.8993 22.7399C15.9594 22.822 16.022 22.84 16.1423 22.8098C16.3038 22.7692 16.3044 22.7673 16.287 22.2747C16.2702 21.7972 16.2644 21.7797 16.1188 21.7627C16.0359 21.753 15.9344 21.7787 15.8933 21.8198ZM20.4169 21.8881C20.3979 21.9639 20.3906 22.1843 20.4007 22.378C20.4213 22.7712 20.5393 22.9189 20.7349 22.7961C20.8642 22.7148 20.9189 21.9716 20.8055 21.8351C20.6912 21.6973 20.4568 21.7293 20.4169 21.8881ZM14.9014 21.9956C14.8163 22.0452 14.7962 22.1413 14.7962 22.4976C14.7962 22.9821 14.8908 23.1566 15.0869 23.0334C15.2117 22.955 15.2636 22.1493 15.1524 22.0153C15.0699 21.916 15.0419 21.9138 14.9014 21.9956ZM21.5636 22.0277C21.4266 22.1646 21.4562 22.942 21.6018 23.0334C21.7965 23.1558 21.8925 22.9819 21.8925 22.5067C21.8925 21.9739 21.7805 21.8108 21.5636 22.0277ZM13.7514 22.3834C13.6749 22.5829 13.7115 23.1227 13.8081 23.2194C14.0273 23.4385 14.1452 23.2559 14.1225 22.7329C14.1053 22.3391 14.0978 22.3208 13.9469 22.3033C13.8441 22.2914 13.776 22.3193 13.7514 22.3834ZM22.5906 22.3866C22.5705 22.439 22.5541 22.6406 22.5541 22.8347C22.5541 23.2213 22.6588 23.3586 22.8682 23.2465C22.9519 23.2017 22.975 23.1129 22.975 22.8356C22.975 22.3905 22.9367 22.2915 22.7645 22.2915C22.6889 22.2915 22.6106 22.3343 22.5906 22.3866ZM12.8738 22.8288C12.8047 22.958 12.7934 23.2701 12.8503 23.4824C12.8766 23.5808 12.9243 23.6156 13.0148 23.6026C13.1273 23.5867 13.1445 23.539 13.1605 23.1991C13.1731 22.9314 13.1547 22.7985 13.1004 22.764C12.9829 22.6894 12.9422 22.701 12.8738 22.8288ZM23.5806 22.7976C23.5389 22.8478 23.5174 23.0265 23.5282 23.233C23.543 23.5199 23.5668 23.5872 23.6594 23.6049C23.8114 23.6338 23.8751 23.5163 23.8762 23.2047C23.8776 22.8011 23.7377 22.6083 23.5806 22.7976ZM16.029 24.5754C14.0582 24.8086 12.4963 25.261 11.1878 25.9778C10.7653 26.2092 10.4801 26.4247 10.0924 26.8051C9.46329 27.4225 9.25088 27.8175 9.21396 28.4386C9.19285 28.7932 9.21269 28.8911 9.37699 29.2422C9.53041 29.57 9.56408 29.7176 9.56408 30.0626C9.56408 30.3741 9.58357 30.4759 9.63926 30.4549C9.68063 30.4393 9.8836 30.3652 10.0903 30.2901L10.4662 30.1536L10.4722 29.2445C10.4789 28.2323 10.5097 28.0454 10.6753 28.0135C10.9006 27.9701 10.9473 28.157 10.9473 29.1028C10.9473 29.9262 10.9556 29.995 11.0525 29.9671C11.1104 29.9504 11.2728 29.9037 11.4134 29.8633L11.6689 29.7898L11.6698 28.7018C11.6707 27.5509 11.7169 27.3131 11.9396 27.3131C12.1587 27.3131 12.2084 27.554 12.2093 28.6211C12.21 29.42 12.2268 29.6284 12.2904 29.6284C12.3344 29.6284 12.5239 29.5976 12.7113 29.56L13.0521 29.4916V28.3311C13.0521 27.0517 13.0871 26.862 13.3228 26.862C13.5571 26.862 13.5934 27.0518 13.5934 28.2792C13.5934 28.9468 13.6164 29.3879 13.6511 29.3879C13.6828 29.3879 13.9128 29.3575 14.1622 29.3204L14.6157 29.253V27.9934C14.6157 26.6947 14.6468 26.5012 14.855 26.5012C15.1189 26.5012 15.157 26.689 15.157 27.9901V29.2116L15.4727 29.1768C15.6463 29.1577 15.9035 29.1281 16.044 29.1109L16.2996 29.0798V27.7719C16.2996 26.357 16.3251 26.2305 16.6022 26.27C16.8629 26.3071 16.8991 26.4942 16.9001 27.8092L16.901 29.027H17.4391H17.9772L17.9954 27.6389C18.0123 26.3458 18.0216 26.245 18.1303 26.1655C18.2749 26.0599 18.2935 26.0599 18.4381 26.1655C18.5468 26.2449 18.5561 26.3457 18.573 27.633L18.5911 29.0153L19.1443 29.04C19.4485 29.0535 19.7177 29.0546 19.7426 29.0423C19.7674 29.03 19.7881 28.4735 19.7886 27.8057C19.7895 26.4944 19.8259 26.3071 20.0865 26.27C20.3636 26.2305 20.3891 26.357 20.3891 27.7721C20.3891 28.4915 20.4093 29.0924 20.4342 29.1075C20.459 29.1226 20.6866 29.1542 20.94 29.1778L21.4007 29.2206L21.4211 27.9602C21.4423 26.6515 21.4717 26.5012 21.7074 26.5012C21.9347 26.5012 21.9527 26.6071 21.9527 27.9501C21.9527 29.4403 21.8817 29.2779 22.5691 29.3603L22.9149 29.4017V28.2861C22.9149 27.6726 22.9413 27.1012 22.9735 27.0163C23.0457 26.8265 23.3003 26.8035 23.3939 26.9784C23.4309 27.0475 23.4561 27.5843 23.4561 28.3003C23.4561 29.5013 23.4566 29.506 23.5914 29.5366C23.9612 29.6206 24.2722 29.6858 24.3093 29.6871C24.3319 29.6879 24.359 29.2159 24.3694 28.6381C24.3848 27.7808 24.4057 27.5704 24.4828 27.4933C24.5897 27.3866 24.7514 27.4246 24.807 27.5693C24.8367 27.6469 24.9043 29.2031 24.9004 29.7212C24.8997 29.8152 24.9595 29.8601 25.1551 29.9126C25.2956 29.9503 25.458 29.9994 25.5159 30.0217C25.6133 30.0593 25.6211 29.9935 25.6211 29.1352C25.6211 28.1534 25.6661 27.9697 25.8952 28.0139C26.0559 28.0449 26.0868 28.244 26.0951 29.3021L26.1022 30.2086L26.4781 30.3633C26.6849 30.4483 26.8742 30.5056 26.8991 30.4906C26.9239 30.4755 26.9442 30.261 26.9442 30.0138C26.9442 29.6439 26.9728 29.5088 27.1058 29.2506C27.3481 28.7802 27.3389 28.2215 27.0804 27.6994C26.8335 27.2007 26.601 26.9253 26.0718 26.5048C24.4496 25.2157 21.4777 24.4484 18.1639 24.4631C17.3971 24.4665 16.5901 24.509 16.029 24.5754ZM9.43611 32.8551C9.36839 32.9367 9.35065 33.6578 9.3373 36.8709L9.321 40.7873L9.64094 40.9812C9.81685 41.0878 9.97982 41.1751 10.003 41.1751C10.0262 41.1751 10.0452 39.3408 10.0452 37.099C10.0452 33.5072 10.0341 33.0071 9.95156 32.8893C9.83916 32.7288 9.55651 32.7101 9.43611 32.8551ZM32.1462 36.8204C32.047 36.8346 31.7087 36.8899 31.3944 36.9434C29.1843 37.3193 26.51 38.6957 22.6913 41.4225C19.9143 43.4055 18.3285 44.2616 16.901 44.5484C16.7191 44.5849 16.239 44.6152 15.8342 44.6156C15.4107 44.616 15.1123 44.6395 15.1317 44.6708C15.2209 44.8151 16.0798 45.3269 16.4803 45.4744C16.8238 45.6009 17.078 45.6477 17.5483 45.6709C18.658 45.7256 19.3171 45.48 20.9604 44.3993C23.4998 42.7293 24.7013 42.0001 26.1322 41.2603C31.2392 38.62 35.9925 38.1249 40.1446 39.8008C40.4754 39.9343 40.7866 40.0588 40.8362 40.0774C41.118 40.1829 39.6629 39.0499 38.9509 38.6094C37.0679 37.4444 35.2227 36.8633 33.2587 36.8166C32.7461 36.8044 32.2454 36.8061 32.1462 36.8204Z" fill="#D801FF"/>
<path d="M139.633 51.5109H142.249C143.008 51.5203 143.561 51.3656 143.908 51.0469C144.264 50.7281 144.442 50.2687 144.442 49.6687C144.442 49.0687 144.264 48.614 143.908 48.3047C143.561 47.9859 143.008 47.8265 142.249 47.8265H139.633V51.5109ZM138.297 46.7015H142.699C143.711 46.7015 144.475 46.964 144.991 47.489C145.516 48.0047 145.778 48.7312 145.778 49.6687C145.778 50.6062 145.516 51.3375 144.991 51.8625C144.475 52.3875 143.711 52.6453 142.699 52.6359H139.633V56.7422H138.297V46.7015ZM148.091 53.1141C148.091 53.5547 148.147 53.9484 148.259 54.2953C148.381 54.6328 148.545 54.9187 148.752 55.1531C148.958 55.3781 149.197 55.5516 149.469 55.6734C149.75 55.7953 150.045 55.8562 150.355 55.8562C150.664 55.8562 150.955 55.7953 151.227 55.6734C151.508 55.5516 151.752 55.3781 151.958 55.1531C152.164 54.9187 152.324 54.6328 152.436 54.2953C152.558 53.9484 152.619 53.5547 152.619 53.1141C152.619 52.6734 152.558 52.2844 152.436 51.9469C152.324 51.6 152.164 51.3094 151.958 51.075C151.752 50.8406 151.508 50.6625 151.227 50.5406C150.955 50.4187 150.664 50.3578 150.355 50.3578C150.045 50.3578 149.75 50.4187 149.469 50.5406C149.197 50.6625 148.958 50.8406 148.752 51.075C148.545 51.3094 148.381 51.6 148.259 51.9469C148.147 52.2844 148.091 52.6734 148.091 53.1141ZM146.825 53.1141C146.825 52.5797 146.9 52.0828 147.05 51.6234C147.2 51.1547 147.425 50.7516 147.725 50.4141C148.025 50.0672 148.395 49.7953 148.836 49.5984C149.277 49.4015 149.783 49.3031 150.355 49.3031C150.936 49.3031 151.442 49.4015 151.874 49.5984C152.314 49.7953 152.685 50.0672 152.985 50.4141C153.285 50.7516 153.51 51.1547 153.66 51.6234C153.81 52.0828 153.885 52.5797 153.885 53.1141C153.885 53.6484 153.81 54.1453 153.66 54.6047C153.51 55.0641 153.285 55.4672 152.985 55.8141C152.685 56.1516 152.314 56.4187 151.874 56.6156C151.442 56.8031 150.936 56.8969 150.355 56.8969C149.783 56.8969 149.277 56.8031 148.836 56.6156C148.395 56.4187 148.025 56.1516 147.725 55.8141C147.425 55.4672 147.2 55.0641 147.05 54.6047C146.9 54.1453 146.825 53.6484 146.825 53.1141ZM162.494 56.7422H161.228L159.752 50.9625H159.724L158.261 56.7422H156.967L154.633 49.4719H155.955L157.6 55.4203H157.628L159.091 49.4719H160.399L161.917 55.4203H161.945L163.577 49.4719H164.814L162.494 56.7422ZM170.999 52.4109C170.98 52.1297 170.915 51.8625 170.802 51.6094C170.699 51.3562 170.554 51.1406 170.366 50.9625C170.188 50.775 169.972 50.6297 169.719 50.5266C169.476 50.4141 169.204 50.3578 168.904 50.3578C168.594 50.3578 168.313 50.4141 168.06 50.5266C167.816 50.6297 167.605 50.775 167.427 50.9625C167.249 51.15 167.108 51.3703 167.005 51.6234C166.902 51.8672 166.841 52.1297 166.822 52.4109H170.999ZM172.152 54.4359C171.993 55.2516 171.641 55.8656 171.097 56.2781C170.554 56.6906 169.869 56.8969 169.044 56.8969C168.463 56.8969 167.957 56.8031 167.526 56.6156C167.104 56.4281 166.747 56.1656 166.457 55.8281C166.166 55.4906 165.946 55.0875 165.796 54.6187C165.655 54.15 165.576 53.6391 165.557 53.0859C165.557 52.5328 165.641 52.0266 165.81 51.5672C165.979 51.1078 166.213 50.7094 166.513 50.3719C166.822 50.0344 167.183 49.7719 167.596 49.5844C168.018 49.3969 168.477 49.3031 168.974 49.3031C169.621 49.3031 170.155 49.439 170.577 49.7109C171.008 49.9734 171.351 50.3109 171.604 50.7234C171.866 51.1359 172.044 51.5859 172.138 52.0734C172.241 52.5609 172.283 53.025 172.265 53.4656H166.822C166.813 53.7844 166.851 54.0891 166.935 54.3797C167.019 54.6609 167.155 54.9141 167.343 55.1391C167.53 55.3547 167.769 55.5281 168.06 55.6594C168.351 55.7906 168.693 55.8562 169.087 55.8562C169.593 55.8562 170.005 55.7391 170.324 55.5047C170.652 55.2703 170.868 54.9141 170.971 54.4359H172.152ZM173.462 49.4719H174.587V51.0047H174.615C174.905 50.4141 175.262 49.9781 175.683 49.6969C176.105 49.4156 176.64 49.2844 177.287 49.3031V50.5687C176.808 50.5687 176.401 50.6344 176.063 50.7656C175.726 50.8969 175.454 51.0891 175.247 51.3422C175.041 51.5953 174.891 51.9047 174.797 52.2703C174.704 52.6266 174.657 53.0391 174.657 53.5078V56.7422H173.462V49.4719ZM182.988 52.4109C182.969 52.1297 182.904 51.8625 182.791 51.6094C182.688 51.3562 182.543 51.1406 182.355 50.9625C182.177 50.775 181.961 50.6297 181.708 50.5266C181.464 50.4141 181.193 50.3578 180.893 50.3578C180.583 50.3578 180.302 50.4141 180.049 50.5266C179.805 50.6297 179.594 50.775 179.416 50.9625C179.238 51.15 179.097 51.3703 178.994 51.6234C178.891 51.8672 178.83 52.1297 178.811 52.4109H182.988ZM184.141 54.4359C183.982 55.2516 183.63 55.8656 183.086 56.2781C182.543 56.6906 181.858 56.8969 181.033 56.8969C180.452 56.8969 179.946 56.8031 179.514 56.6156C179.093 56.4281 178.736 56.1656 178.446 55.8281C178.155 55.4906 177.935 55.0875 177.785 54.6187C177.644 54.15 177.564 53.6391 177.546 53.0859C177.546 52.5328 177.63 52.0266 177.799 51.5672C177.968 51.1078 178.202 50.7094 178.502 50.3719C178.811 50.0344 179.172 49.7719 179.585 49.5844C180.007 49.3969 180.466 49.3031 180.963 49.3031C181.61 49.3031 182.144 49.439 182.566 49.7109C182.997 49.9734 183.339 50.3109 183.593 50.7234C183.855 51.1359 184.033 51.5859 184.127 52.0734C184.23 52.5609 184.272 53.025 184.254 53.4656H178.811C178.802 53.7844 178.839 54.0891 178.924 54.3797C179.008 54.6609 179.144 54.9141 179.332 55.1391C179.519 55.3547 179.758 55.5281 180.049 55.6594C180.339 55.7906 180.682 55.8562 181.075 55.8562C181.582 55.8562 181.994 55.7391 182.313 55.5047C182.641 55.2703 182.857 54.9141 182.96 54.4359H184.141ZM186.364 53.1703C186.364 53.5078 186.407 53.8406 186.491 54.1687C186.585 54.4875 186.721 54.7734 186.899 55.0266C187.086 55.2797 187.321 55.4812 187.602 55.6312C187.893 55.7812 188.23 55.8562 188.614 55.8562C189.018 55.8562 189.36 55.7766 189.641 55.6172C189.922 55.4578 190.152 55.2516 190.33 54.9984C190.508 54.7359 190.635 54.4406 190.71 54.1125C190.794 53.7844 190.836 53.4516 190.836 53.1141C190.836 52.7578 190.794 52.4156 190.71 52.0875C190.625 51.75 190.489 51.4547 190.302 51.2016C190.124 50.9484 189.889 50.7469 189.599 50.5969C189.308 50.4375 188.957 50.3578 188.544 50.3578C188.141 50.3578 187.799 50.4375 187.518 50.5969C187.236 50.7562 187.011 50.9672 186.843 51.2297C186.674 51.4922 186.552 51.7922 186.477 52.1297C186.402 52.4672 186.364 52.8141 186.364 53.1703ZM191.989 56.7422H190.794V55.7578H190.766C190.569 56.1609 190.26 56.4516 189.838 56.6297C189.416 56.8078 188.952 56.8969 188.446 56.8969C187.883 56.8969 187.391 56.7938 186.969 56.5875C186.557 56.3812 186.21 56.1047 185.928 55.7578C185.657 55.4109 185.45 55.0078 185.31 54.5484C185.169 54.0891 185.099 53.6016 185.099 53.0859C185.099 52.5703 185.164 52.0828 185.296 51.6234C185.436 51.1641 185.643 50.7656 185.914 50.4281C186.196 50.0812 186.543 49.8094 186.955 49.6125C187.377 49.4062 187.864 49.3031 188.418 49.3031C188.605 49.3031 188.807 49.3219 189.022 49.3594C189.238 49.3969 189.454 49.4625 189.669 49.5562C189.885 49.6406 190.086 49.7578 190.274 49.9078C190.471 50.0484 190.635 50.2266 190.766 50.4422H190.794V46.7015H191.989V56.7422ZM197.785 46.7015H198.98V50.4562H199.008C199.205 50.0531 199.514 49.7625 199.936 49.5844C200.358 49.3969 200.822 49.3031 201.328 49.3031C201.891 49.3031 202.378 49.4062 202.791 49.6125C203.213 49.8187 203.56 50.1 203.831 50.4562C204.113 50.8031 204.324 51.2062 204.464 51.6656C204.605 52.125 204.675 52.6125 204.675 53.1281C204.675 53.6437 204.605 54.1312 204.464 54.5906C204.333 55.05 204.127 55.4531 203.845 55.8C203.574 56.1375 203.227 56.4047 202.805 56.6016C202.392 56.7984 201.91 56.8969 201.356 56.8969C201.178 56.8969 200.977 56.8781 200.752 56.8406C200.536 56.8031 200.32 56.7422 200.105 56.6578C199.889 56.5734 199.683 56.4609 199.486 56.3203C199.299 56.1703 199.139 55.9875 199.008 55.7719H198.98V56.7422H197.785V46.7015ZM203.41 53.0437C203.41 52.7062 203.363 52.3781 203.269 52.0594C203.185 51.7312 203.049 51.4406 202.861 51.1875C202.683 50.9344 202.449 50.7328 202.158 50.5828C201.877 50.4328 201.544 50.3578 201.16 50.3578C200.756 50.3578 200.414 50.4375 200.133 50.5969C199.852 50.7562 199.622 50.9672 199.444 51.2297C199.266 51.4828 199.135 51.7734 199.05 52.1016C198.975 52.4297 198.938 52.7625 198.938 53.1C198.938 53.4562 198.98 53.8031 199.064 54.1406C199.149 54.4687 199.28 54.7594 199.458 55.0125C199.645 55.2656 199.885 55.4719 200.175 55.6312C200.466 55.7812 200.817 55.8562 201.23 55.8562C201.642 55.8562 201.985 55.7766 202.256 55.6172C202.538 55.4578 202.763 55.2469 202.931 54.9844C203.1 54.7219 203.222 54.4219 203.297 54.0844C203.372 53.7469 203.41 53.4 203.41 53.0437ZM208.933 57.7125C208.792 58.0688 208.652 58.3688 208.511 58.6125C208.38 58.8563 208.23 59.0531 208.061 59.2031C207.902 59.3625 207.719 59.475 207.513 59.5406C207.316 59.6156 207.086 59.6531 206.824 59.6531C206.683 59.6531 206.542 59.6438 206.402 59.625C206.261 59.6063 206.125 59.5734 205.994 59.5266V58.4297C206.097 58.4766 206.214 58.5141 206.345 58.5422C206.486 58.5797 206.603 58.5984 206.697 58.5984C206.941 58.5984 207.142 58.5375 207.302 58.4156C207.47 58.3031 207.597 58.1391 207.681 57.9234L208.174 56.7L205.291 49.4719H206.641L208.764 55.4203H208.792L210.831 49.4719H212.097L208.933 57.7125ZM224.223 56.7422H222.958L221.481 50.9625H221.453L219.991 56.7422H218.697L216.362 49.4719H217.684L219.33 55.4203H219.358L220.82 49.4719H222.128L223.647 55.4203H223.675L225.306 49.4719H226.544L224.223 56.7422ZM234.121 56.7141C233.915 56.8359 233.629 56.8969 233.263 56.8969C232.954 56.8969 232.705 56.8125 232.518 56.6437C232.34 56.4656 232.25 56.1797 232.25 55.7859C231.922 56.1797 231.538 56.4656 231.097 56.6437C230.666 56.8125 230.197 56.8969 229.691 56.8969C229.363 56.8969 229.049 56.8594 228.749 56.7844C228.458 56.7094 228.205 56.5922 227.99 56.4328C227.774 56.2734 227.6 56.0672 227.469 55.8141C227.347 55.5516 227.286 55.2375 227.286 54.8719C227.286 54.4594 227.357 54.1219 227.497 53.8594C227.638 53.5969 227.821 53.3859 228.046 53.2266C228.28 53.0578 228.543 52.9312 228.833 52.8469C229.133 52.7625 229.438 52.6922 229.747 52.6359C230.075 52.5703 230.385 52.5234 230.675 52.4953C230.975 52.4578 231.238 52.4109 231.463 52.3547C231.688 52.2891 231.866 52.2 231.997 52.0875C232.129 51.9656 232.194 51.7922 232.194 51.5672C232.194 51.3047 232.143 51.0937 232.04 50.9344C231.946 50.775 231.819 50.6531 231.66 50.5687C231.51 50.4844 231.336 50.4281 231.14 50.4C230.952 50.3719 230.765 50.3578 230.577 50.3578C230.071 50.3578 229.649 50.4562 229.311 50.6531C228.974 50.8406 228.791 51.2016 228.763 51.7359H227.568C227.586 51.2859 227.68 50.9062 227.849 50.5969C228.018 50.2875 228.243 50.039 228.524 49.8515C228.805 49.6547 229.124 49.514 229.48 49.4297C229.846 49.3453 230.235 49.3031 230.647 49.3031C230.975 49.3031 231.299 49.3265 231.618 49.3734C231.946 49.4203 232.241 49.5187 232.504 49.6687C232.766 49.8094 232.977 50.0109 233.136 50.2734C233.296 50.5359 233.375 50.8781 233.375 51.3V55.0406C233.375 55.3219 233.39 55.5281 233.418 55.6594C233.455 55.7906 233.568 55.8562 233.755 55.8562C233.858 55.8562 233.98 55.8328 234.121 55.7859V56.7141ZM232.18 52.9875C232.03 53.1 231.833 53.1844 231.59 53.2406C231.346 53.2875 231.088 53.3297 230.816 53.3672C230.554 53.3953 230.286 53.4328 230.015 53.4797C229.743 53.5172 229.499 53.5828 229.283 53.6766C229.068 53.7703 228.89 53.9062 228.749 54.0844C228.618 54.2531 228.552 54.4875 228.552 54.7875C228.552 54.9844 228.59 55.1531 228.665 55.2937C228.749 55.425 228.852 55.5328 228.974 55.6172C229.105 55.7016 229.255 55.7625 229.424 55.8C229.593 55.8375 229.771 55.8562 229.958 55.8562C230.352 55.8562 230.69 55.8047 230.971 55.7016C231.252 55.5891 231.482 55.4531 231.66 55.2937C231.838 55.125 231.969 54.9469 232.054 54.7594C232.138 54.5625 232.18 54.3797 232.18 54.2109V52.9875ZM235.191 49.4719H236.316V51.0047H236.344C236.635 50.4141 236.991 49.9781 237.413 49.6969C237.835 49.4156 238.369 49.2844 239.016 49.3031V50.5687C238.538 50.5687 238.13 50.6344 237.793 50.7656C237.455 50.8969 237.183 51.0891 236.977 51.3422C236.771 51.5953 236.621 51.9047 236.527 52.2703C236.433 52.6266 236.386 53.0391 236.386 53.5078V56.7422H235.191V49.4719ZM239.874 49.4719H240.999V51.0047H241.027C241.318 50.4141 241.674 49.9781 242.096 49.6969C242.518 49.4156 243.052 49.2844 243.699 49.3031V50.5687C243.221 50.5687 242.813 50.6344 242.476 50.7656C242.138 50.8969 241.866 51.0891 241.66 51.3422C241.454 51.5953 241.304 51.9047 241.21 52.2703C241.116 52.6266 241.069 53.0391 241.069 53.5078V56.7422H239.874V49.4719ZM245.865 48.164H244.669V46.7015H245.865V48.164ZM244.669 49.4719H245.865V56.7422H244.669V49.4719ZM248.588 53.1141C248.588 53.5547 248.645 53.9484 248.757 54.2953C248.879 54.6328 249.043 54.9187 249.249 55.1531C249.456 55.3781 249.695 55.5516 249.966 55.6734C250.248 55.7953 250.543 55.8562 250.852 55.8562C251.162 55.8562 251.452 55.7953 251.724 55.6734C252.006 55.5516 252.249 55.3781 252.456 55.1531C252.662 54.9187 252.821 54.6328 252.934 54.2953C253.056 53.9484 253.116 53.5547 253.116 53.1141C253.116 52.6734 253.056 52.2844 252.934 51.9469C252.821 51.6 252.662 51.3094 252.456 51.075C252.249 50.8406 252.006 50.6625 251.724 50.5406C251.452 50.4187 251.162 50.3578 250.852 50.3578C250.543 50.3578 250.248 50.4187 249.966 50.5406C249.695 50.6625 249.456 50.8406 249.249 51.075C249.043 51.3094 248.879 51.6 248.757 51.9469C248.645 52.2844 248.588 52.6734 248.588 53.1141ZM247.323 53.1141C247.323 52.5797 247.398 52.0828 247.548 51.6234C247.698 51.1547 247.923 50.7516 248.223 50.4141C248.523 50.0672 248.893 49.7953 249.334 49.5984C249.774 49.4015 250.281 49.3031 250.852 49.3031C251.434 49.3031 251.94 49.4015 252.371 49.5984C252.812 49.7953 253.182 50.0672 253.482 50.4141C253.782 50.7516 254.007 51.1547 254.157 51.6234C254.307 52.0828 254.382 52.5797 254.382 53.1141C254.382 53.6484 254.307 54.1453 254.157 54.6047C254.007 55.0641 253.782 55.4672 253.482 55.8141C253.182 56.1516 252.812 56.4187 252.371 56.6156C251.94 56.8031 251.434 56.8969 250.852 56.8969C250.281 56.8969 249.774 56.8031 249.334 56.6156C248.893 56.4187 248.523 56.1516 248.223 55.8141C247.923 55.4672 247.698 55.0641 247.548 54.6047C247.398 54.1453 247.323 53.6484 247.323 53.1141ZM255.749 49.4719H256.874V51.0047H256.902C257.193 50.4141 257.549 49.9781 257.971 49.6969C258.393 49.4156 258.927 49.2844 259.574 49.3031V50.5687C259.096 50.5687 258.688 50.6344 258.351 50.7656C258.013 50.8969 257.741 51.0891 257.535 51.3422C257.329 51.5953 257.179 51.9047 257.085 52.2703C256.991 52.6266 256.945 53.0391 256.945 53.5078V56.7422H255.749V49.4719ZM269.324 51.8062C269.23 51.3469 269.034 50.9906 268.734 50.7375C268.434 50.4844 268.03 50.3578 267.524 50.3578C267.093 50.3578 266.732 50.4375 266.441 50.5969C266.151 50.7562 265.916 50.9672 265.738 51.2297C265.57 51.4922 265.448 51.7969 265.373 52.1437C265.298 52.4812 265.26 52.8328 265.26 53.1984C265.26 53.5359 265.298 53.8641 265.373 54.1828C265.457 54.5016 265.584 54.7875 265.752 55.0406C265.921 55.2844 266.141 55.4812 266.413 55.6312C266.685 55.7812 267.009 55.8562 267.384 55.8562C267.974 55.8562 268.434 55.7016 268.762 55.3922C269.099 55.0828 269.305 54.6469 269.38 54.0844H270.604C270.473 54.9844 270.135 55.6781 269.591 56.1656C269.057 56.6531 268.326 56.8969 267.398 56.8969C266.845 56.8969 266.352 56.8078 265.921 56.6297C265.499 56.4516 265.143 56.1984 264.852 55.8703C264.571 55.5422 264.355 55.1531 264.205 54.7031C264.065 54.2437 263.995 53.7422 263.995 53.1984C263.995 52.6547 264.065 52.1484 264.205 51.6797C264.346 51.2016 264.557 50.7891 264.838 50.4422C265.129 50.0859 265.49 49.8094 265.921 49.6125C266.352 49.4062 266.854 49.3031 267.426 49.3031C267.838 49.3031 268.223 49.3547 268.579 49.4578C268.945 49.5515 269.263 49.7015 269.535 49.9078C269.816 50.1141 270.046 50.3766 270.224 50.6953C270.402 51.0047 270.515 51.375 270.562 51.8062H269.324ZM272.813 53.1141C272.813 53.5547 272.87 53.9484 272.982 54.2953C273.104 54.6328 273.268 54.9187 273.474 55.1531C273.68 55.3781 273.92 55.5516 274.191 55.6734C274.473 55.7953 274.768 55.8562 275.077 55.8562C275.387 55.8562 275.677 55.7953 275.949 55.6734C276.23 55.5516 276.474 55.3781 276.68 55.1531C276.887 54.9187 277.046 54.6328 277.159 54.2953C277.28 53.9484 277.341 53.5547 277.341 53.1141C277.341 52.6734 277.28 52.2844 277.159 51.9469C277.046 51.6 276.887 51.3094 276.68 51.075C276.474 50.8406 276.23 50.6625 275.949 50.5406C275.677 50.4187 275.387 50.3578 275.077 50.3578C274.768 50.3578 274.473 50.4187 274.191 50.5406C273.92 50.6625 273.68 50.8406 273.474 51.075C273.268 51.3094 273.104 51.6 272.982 51.9469C272.87 52.2844 272.813 52.6734 272.813 53.1141ZM271.548 53.1141C271.548 52.5797 271.623 52.0828 271.773 51.6234C271.923 51.1547 272.148 50.7516 272.448 50.4141C272.748 50.0672 273.118 49.7953 273.559 49.5984C273.999 49.4015 274.505 49.3031 275.077 49.3031C275.659 49.3031 276.165 49.4015 276.596 49.5984C277.037 49.7953 277.407 50.0672 277.707 50.4141C278.007 50.7516 278.232 51.1547 278.382 51.6234C278.532 52.0828 278.607 52.5797 278.607 53.1141C278.607 53.6484 278.532 54.1453 278.382 54.6047C278.232 55.0641 278.007 55.4672 277.707 55.8141C277.407 56.1516 277.037 56.4187 276.596 56.6156C276.165 56.8031 275.659 56.8969 275.077 56.8969C274.505 56.8969 273.999 56.8031 273.559 56.6156C273.118 56.4187 272.748 56.1516 272.448 55.8141C272.148 55.4672 271.923 55.0641 271.773 54.6047C271.623 54.1453 271.548 53.6484 271.548 53.1141ZM281.282 48.164H280.087V46.7015H281.282V48.164ZM280.087 49.4719H281.282V56.7422H280.087V49.4719ZM283.134 49.4719H284.259V50.625H284.287C284.784 49.7437 285.571 49.3031 286.649 49.3031C287.127 49.3031 287.526 49.3687 287.845 49.5C288.163 49.6312 288.421 49.814 288.618 50.0484C288.815 50.2828 288.951 50.5641 289.026 50.8922C289.11 51.2109 289.152 51.5672 289.152 51.9609V56.7422H287.957V51.8203C287.957 51.3703 287.826 51.0141 287.563 50.7516C287.301 50.4891 286.94 50.3578 286.481 50.3578C286.115 50.3578 285.796 50.4141 285.524 50.5266C285.262 50.6391 285.042 50.7984 284.863 51.0047C284.685 51.2109 284.549 51.4547 284.456 51.7359C284.371 52.0078 284.329 52.3078 284.329 52.6359V56.7422H283.134V49.4719Z" fill="white" fill-opacity="0.7"/>
</svg>
